# xmcd
#
# Track frame offsets: 
#        150
#        18756
#        39408
#        56130
#        70429
#        92658
#        110574
#        131673
#        149515
#        168538
#        189017
#
# Disc length: 2765 seconds
#
# Revision: 5
# Processed by: cddbd v1.5.1PL0 Copyright (c) Steve Scherf et al.
# Submitted via: ExactAudioCopy v0.95a5
#
DISCID=980acb0b
DTITLE=BB de Voeux - Blue Lights
DYEAR=1900
DGENRE=Blues
TTITLE0=I`m a fool to want you
TTITLE1=Smoke get in your eyes
TTITLE2=Wonderful World
TTITLE3=Mona Lisa
TTITLE4=Geogia on my mind
TTITLE5=Misty
TTITLE6=As time goes by
TTITLE7=Too young
TTITLE8=For all we know
TTITLE9=Like a lover
TTITLE10=Lover come back
EXTD=
EXTT0=
EXTT1=
EXTT2=
EXTT3=
EXTT4=
EXTT5=
EXTT6=
EXTT7=
EXTT8=
EXTT9=
EXTT10=
PLAYORDER=
